<svg width="17" height="12" viewBox="0 0 17 12" fill="none" xmlns="http://www.w3.org/2000/svg">
<path d="M16.366 10.7682C16.529 10.7682 16.6717 10.8212 16.794 10.9272C16.9162 11.0331 16.9842 11.1722 16.9977 11.3444C17.0113 11.5166 16.9638 11.6623 16.8551 11.7815C16.7464 11.9007 16.6105 11.9735 16.4475 12H0.63399C0.470964 12 0.328316 11.947 0.206047 11.8411C0.0837773 11.7351 0.0158498 11.596 0.00226425 11.4238C-0.0113213 11.2517 0.036228 11.106 0.144912 10.9868C0.253596 10.8675 0.389451 10.7947 0.552477 10.7682H16.366ZM16.366 5.40397C16.529 5.40397 16.6717 5.45695 16.794 5.56291C16.9162 5.66887 16.9842 5.80132 16.9977 5.96026C17.0113 6.11921 16.9638 6.2649 16.8551 6.39735C16.7464 6.5298 16.6105 6.60927 16.4475 6.63576H0.63399C0.470964 6.63576 0.328316 6.58278 0.206047 6.47682C0.0837773 6.37086 0.0158498 6.23179 0.00226425 6.0596C-0.0113213 5.88742 0.036228 5.74172 0.144912 5.62252C0.253596 5.50331 0.389451 5.43046 0.552477 5.40397H16.366ZM16.366 0C16.529 0 16.6717 0.0596027 16.794 0.178808C16.9162 0.298013 16.9842 0.437086 16.9977 0.596027C17.0113 0.754967 16.9638 0.89404 16.8551 1.01325C16.7464 1.13245 16.6105 1.2053 16.4475 1.23179H0.63399C0.470964 1.23179 0.328316 1.17881 0.206047 1.07285C0.0837773 0.966887 0.0158498 0.834437 0.00226425 0.675497C-0.0113213 0.516556 0.036228 0.370861 0.144912 0.238411C0.253596 0.10596 0.389451 0.0264901 0.552477 0H16.366Z" fill="white"/>
</svg>
