<svg width="7" height="11" viewBox="0 0 7 11" fill="none" xmlns="http://www.w3.org/2000/svg">
<path d="M4.2 8.25C4.29333 8.25 4.37733 8.28208 4.452 8.34625C4.52667 8.41042 4.55933 8.49292 4.55 8.59375C4.54067 8.69458 4.50333 8.77708 4.438 8.84125C4.37267 8.90542 4.29333 8.9375 4.2 8.9375H2.8C2.70667 8.9375 2.62267 8.90542 2.548 8.84125C2.47333 8.77708 2.436 8.69458 2.436 8.59375C2.436 8.49292 2.47333 8.41042 2.548 8.34625C2.62267 8.28208 2.70667 8.25 2.8 8.25H4.2ZM5.6 0C5.992 0 6.32333 0.132917 6.594 0.39875C6.86467 0.664583 7 0.99 7 1.375V9.625C7 10.01 6.86467 10.3354 6.594 10.6012C6.32333 10.8671 5.992 11 5.6 11H1.4C1.008 11 0.676666 10.8671 0.406 10.6012C0.135333 10.3354 -2.16067e-07 10.01 -2.16067e-07 9.625V1.375C-2.16067e-07 0.99 0.135333 0.664583 0.406 0.39875C0.676666 0.132917 1.008 0 1.4 0H5.6ZM6.3 1.375C6.3 1.19167 6.23 1.03125 6.09 0.89375C5.95 0.75625 5.78667 0.6875 5.6 0.6875H1.4C1.21333 0.6875 1.05 0.75625 0.91 0.89375C0.77 1.03125 0.7 1.19167 0.7 1.375V9.625C0.7 9.80833 0.77 9.96875 0.91 10.1062C1.05 10.2437 1.21333 10.3125 1.4 10.3125H5.6C5.78667 10.3125 5.95 10.2437 6.09 10.1062C6.23 9.96875 6.3 9.80833 6.3 9.625V1.375Z" fill="white"/>
</svg>
