<?xml version="1.0" encoding="UTF-8" standalone="no"?>
<!DOCTYPE svg PUBLIC "-//W3C//DTD SVG 1.1//EN" "http://www.w3.org/Graphics/SVG/1.1/DTD/svg11.dtd">
<svg width="100%" height="100%" viewBox="0 0 3 6" version="1.1" xmlns="http://www.w3.org/2000/svg" xmlns:xlink="http://www.w3.org/1999/xlink" xml:space="preserve" xmlns:serif="http://www.serif.com/" style="fill-rule:evenodd;clip-rule:evenodd;stroke-linejoin:round;stroke-miterlimit:2;">
    <g transform="matrix(0.428571,0,0,0.428571,0,0.342857)">
        <path d="M4.2,8.25C4.293,8.25 4.377,8.282 4.452,8.346C4.527,8.41 4.559,8.493 4.55,8.594C4.541,8.695 4.503,8.777 4.438,8.841C4.373,8.905 4.293,8.938 4.2,8.938L2.8,8.938C2.707,8.938 2.623,8.905 2.548,8.841C2.473,8.777 2.436,8.695 2.436,8.594C2.436,8.493 2.473,8.41 2.548,8.346C2.623,8.282 2.707,8.25 2.8,8.25L4.2,8.25ZM5.6,0C5.992,0 6.323,0.133 6.594,0.399C6.865,0.665 7,0.99 7,1.375L7,9.625C7,10.01 6.865,10.335 6.594,10.601C6.323,10.867 5.992,11 5.6,11L1.4,11C1.008,11 0.677,10.867 0.406,10.601C0.135,10.335 -0,10.01 -0,9.625L-0,1.375C-0,0.99 0.135,0.665 0.406,0.399C0.677,0.133 1.008,0 1.4,0L5.6,0ZM6.3,1.375C6.3,1.192 6.23,1.031 6.09,0.894C5.95,0.756 5.787,0.688 5.6,0.688L1.4,0.688C1.213,0.688 1.05,0.756 0.91,0.894C0.77,1.031 0.7,1.192 0.7,1.375L0.7,9.625C0.7,9.808 0.77,9.969 0.91,10.106C1.05,10.244 1.213,10.313 1.4,10.313L5.6,10.313C5.787,10.313 5.95,10.244 6.09,10.106C6.23,9.969 6.3,9.808 6.3,9.625L6.3,1.375Z" style="fill:white;fill-rule:nonzero;"/>
    </g>
</svg>
