<svg width="7" height="4" viewBox="0 0 7 4" fill="none" xmlns="http://www.w3.org/2000/svg">
<path d="M0.08 0.087215C0.146667 0.0290717 0.223333 0 0.31 0C0.396667 0 0.466667 0.0290717 0.52 0.087215L3.12 2.9217L5.72 0.087215C5.77333 0.0290717 5.84333 0 5.93 0C6.01667 0 6.09 0.0327056 6.15 0.0981169C6.21 0.163528 6.24 0.243475 6.24 0.337958C6.24 0.432441 6.21333 0.516022 6.16 0.588701L3.34 3.64123C3.27333 3.71391 3.2 3.75025 3.12 3.75025C3.04 3.75025 2.96667 3.71391 2.9 3.64123L0.08 0.588701C0.0266667 0.516022 0 0.432441 0 0.337958C0 0.243475 0.0266667 0.159894 0.08 0.087215Z" fill="white"/>
</svg>
