<svg width="9" height="10" viewBox="0 0 9 10" fill="none" xmlns="http://www.w3.org/2000/svg">
<path d="M3.85714 0.266667C4.04571 0.0888889 4.26 0 4.5 0C4.74 0 4.95429 0.0888889 5.14286 0.266667L8.69143 3.54667C8.89714 3.74222 9 3.99111 9 4.29333V8.98667C9 9.27111 8.90571 9.51111 8.71714 9.70667C8.52857 9.90222 8.29714 10 8.02286 10H6.42857C6.15429 10 5.92714 9.90222 5.74714 9.70667C5.56714 9.51111 5.47714 9.27111 5.47714 8.98667V6.66667C5.47714 6.57778 5.44286 6.49778 5.37429 6.42667C5.30571 6.35556 5.22857 6.32 5.14286 6.32H3.85714C3.77143 6.32 3.69429 6.35556 3.62571 6.42667C3.55714 6.49778 3.52286 6.57778 3.52286 6.66667V8.98667C3.54 9.27111 3.45429 9.51111 3.26571 9.70667C3.07714 9.90222 2.84571 10 2.57143 10H0.977143C0.702857 10 0.471429 9.90222 0.282857 9.70667C0.0942857 9.51111 0 9.27111 0 8.98667V4.29333C0 3.99111 0.102857 3.74222 0.308571 3.54667L3.85714 0.266667ZM4.70571 0.746667C4.65429 0.693333 4.58571 0.666667 4.5 0.666667C4.41429 0.666667 4.34571 0.693333 4.29429 0.746667L0.745714 4.05333C0.677143 4.12444 0.642857 4.20444 0.642857 4.29333V8.98667C0.642857 9.09333 0.672857 9.17778 0.732857 9.24C0.792857 9.30222 0.874286 9.33333 0.977143 9.33333H2.57143C2.65714 9.33333 2.73429 9.30222 2.80286 9.24C2.87143 9.17778 2.90571 9.09333 2.90571 8.98667V6.66667C2.90571 6.38222 2.99571 6.14222 3.17571 5.94667C3.35571 5.75111 3.58286 5.65333 3.85714 5.65333H5.14286C5.41714 5.67111 5.64429 5.77333 5.82429 5.96C6.00429 6.14667 6.10286 6.38222 6.12 6.66667V8.98667C6.12 9.09333 6.15 9.17778 6.21 9.24C6.27 9.30222 6.34286 9.33333 6.42857 9.33333H8.04857C8.13429 9.33333 8.20714 9.30222 8.26714 9.24C8.32714 9.17778 8.35714 9.09333 8.35714 8.98667V4.29333C8.35714 4.20444 8.32286 4.12444 8.25429 4.05333L4.70571 0.746667Z" fill="white"/>
</svg>
