<svg width="11" height="12" viewBox="0 0 11 12" fill="none" xmlns="http://www.w3.org/2000/svg">
<path d="M5.5 3.75263C5.89273 3.75263 6.25422 3.85064 6.58447 4.04667C6.91472 4.24271 7.17356 4.51342 7.361 4.85881C7.54844 5.2042 7.64216 5.58226 7.64216 5.993C7.64216 6.40373 7.54844 6.7818 7.361 7.12719C7.17356 7.47258 6.91472 7.74329 6.58447 7.93932C6.25422 8.13536 5.89273 8.23337 5.5 8.23337C4.91091 8.23337 4.4066 8.014 3.9871 7.57526C3.56759 7.13652 3.35784 6.6091 3.35784 5.993C3.35784 5.3769 3.56759 4.84947 3.9871 4.41074C4.4066 3.972 4.91091 3.75263 5.5 3.75263ZM6.94596 5.993C6.94596 5.73162 6.87902 5.48425 6.74513 5.25088C6.61125 5.0175 6.43273 4.83081 6.20959 4.69078C5.98645 4.55076 5.74992 4.48075 5.5 4.48075C5.25008 4.48075 5.01355 4.55076 4.79041 4.69078C4.56727 4.83081 4.38875 5.0175 4.25487 5.25088C4.12098 5.48425 4.05404 5.73162 4.05404 5.993C4.05404 6.40373 4.19685 6.75846 4.48247 7.05718C4.76809 7.35589 5.10727 7.50525 5.5 7.50525C5.89273 7.50525 6.23191 7.35589 6.51753 7.05718C6.80315 6.75846 6.94596 6.40373 6.94596 5.993ZM1.80477 10.1937L2.63486 9.80163C2.88478 9.68961 3.13023 9.70362 3.37123 9.84364C3.61222 9.98366 3.74164 10.203 3.75949 10.5018L3.8666 11.4259C3.88445 11.5379 3.92462 11.6266 3.9871 11.6919C4.04958 11.7573 4.12545 11.8086 4.2147 11.846C5.07157 12.0513 5.92843 12.0513 6.7853 11.846C6.87455 11.8086 6.95042 11.7573 7.0129 11.6919C7.07538 11.6266 7.11555 11.5379 7.1334 11.4259L7.24051 10.5018C7.25836 10.2217 7.38778 10.007 7.62877 9.85764C7.86977 9.70828 8.11522 9.68961 8.36514 9.80163L9.19523 10.1937C9.26663 10.231 9.35143 10.2404 9.44961 10.2217C9.54779 10.203 9.62366 10.1564 9.67722 10.0817C10.2842 9.40957 10.7215 8.63477 10.9893 7.75729C11.0071 7.66394 11.0027 7.57059 10.9759 7.47725C10.9491 7.3839 10.9 7.30922 10.8286 7.25321L10.0789 6.66511C9.86465 6.49708 9.75755 6.27305 9.75755 5.993C9.75755 5.71295 9.86465 5.48891 10.0789 5.32089L10.8286 4.73279C10.9 4.67678 10.9491 4.6021 10.9759 4.50875C11.0027 4.4154 11.0071 4.32205 10.9893 4.2287C10.7215 3.35123 10.2842 2.57643 9.67722 1.90432C9.62366 1.82964 9.54779 1.78296 9.44961 1.76429C9.35143 1.74562 9.26663 1.75496 9.19523 1.7923L8.36514 2.18436C8.11522 2.29638 7.86977 2.27771 7.62877 2.12835C7.38778 1.979 7.25836 1.76429 7.24051 1.48425L7.1334 0.560093C7.11555 0.448075 7.07538 0.354726 7.0129 0.280047C6.95042 0.205368 6.87455 0.158693 6.7853 0.140023C6.35686 0.0466744 5.92843 0 5.5 0C5.07157 0 4.64314 0.0466744 4.2147 0.140023C4.12545 0.158693 4.04958 0.205368 3.9871 0.280047C3.92462 0.354726 3.88445 0.448075 3.8666 0.560093L3.75949 1.48425C3.74164 1.70828 3.65685 1.89032 3.50511 2.03034C3.35338 2.17036 3.1704 2.24037 2.95618 2.24037C2.84907 2.24037 2.74197 2.2217 2.63486 2.18436L1.80477 1.7923C1.73337 1.75496 1.64857 1.74562 1.55039 1.76429C1.45221 1.78296 1.37634 1.82964 1.32278 1.90432C0.715839 2.57643 0.278481 3.35123 0.0107105 4.2287C-0.00714084 4.32205 -0.00267801 4.4154 0.024099 4.50875C0.050876 4.6021 0.0999672 4.67678 0.171373 4.73279L0.921129 5.32089C1.13535 5.48891 1.24245 5.71295 1.24245 5.993C1.24245 6.27305 1.13535 6.49708 0.921129 6.66511L0.171373 7.25321C0.0999672 7.30922 0.050876 7.3839 0.024099 7.47725C-0.00267801 7.57059 -0.00714084 7.66394 0.0107105 7.75729C0.278481 8.63477 0.715839 9.40957 1.32278 10.0817C1.37634 10.1564 1.45221 10.203 1.55039 10.2217C1.64857 10.2404 1.73337 10.231 1.80477 10.1937ZM4.42892 10.0817C4.30396 9.70828 4.07189 9.4189 3.73272 9.21354C3.5185 9.08285 3.2909 9.00817 3.0499 8.9895C2.80891 8.97083 2.57238 9.0175 2.34031 9.12952L1.69766 9.40957C1.28708 8.90548 0.974683 8.34539 0.760467 7.72929L1.32278 7.28121C1.51915 7.13186 1.67535 6.94516 1.79138 6.72112C1.90742 6.49708 1.96543 6.25438 1.96543 5.993C1.96543 5.73162 1.90742 5.48891 1.79138 5.26488C1.67535 5.04084 1.52808 4.85414 1.34956 4.70478L0.760467 4.25671C0.974683 3.64061 1.28708 3.08051 1.69766 2.57643L2.34031 2.85648C2.53668 2.94982 2.74197 2.9965 2.95618 2.9965C3.34891 2.9965 3.69255 2.86114 3.9871 2.59043C4.28165 2.31972 4.44677 1.979 4.48247 1.56826L4.5628 0.84014C4.86628 0.784131 5.17868 0.756126 5.5 0.756126C5.82132 0.756126 6.13372 0.784131 6.4372 0.84014L6.51753 1.56826C6.53538 1.82964 6.61125 2.06301 6.74513 2.26838C6.87902 2.47375 7.05307 2.64177 7.26728 2.77246C7.4815 2.90315 7.7091 2.97783 7.9501 2.9965C8.19109 3.01517 8.42762 2.96849 8.65969 2.85648L9.30234 2.57643C9.71292 3.08051 10.0253 3.64061 10.2395 4.25671L9.65044 4.70478C9.47192 4.85414 9.32465 5.04084 9.20862 5.26488C9.09258 5.48891 9.03457 5.73162 9.03457 5.993C9.03457 6.25438 9.09258 6.49708 9.20862 6.72112C9.32465 6.94516 9.47192 7.13186 9.65044 7.28121L10.2395 7.72929C10.0253 8.34539 9.71292 8.90548 9.30234 9.40957L8.65969 9.12952C8.42762 9.0175 8.19109 8.97083 7.9501 8.9895C7.7091 9.00817 7.4815 9.08285 7.26728 9.21354C7.05307 9.34422 6.87902 9.51225 6.74513 9.71762C6.61125 9.92299 6.53538 10.1564 6.51753 10.4177L6.4372 11.1459C5.8124 11.2765 5.1876 11.2765 4.5628 11.1459L4.48247 10.4177L4.42892 10.0817Z" fill="white"/>
</svg>
